<svg width="250" height="55" viewBox="0 0 250 55" fill="none" xmlns="http://www.w3.org/2000/svg">
<path d="M68.6045 10.5193H66.918C66.8182 9.9299 66.6437 9.41207 66.3943 8.96586C66.1495 8.51964 65.8503 8.14505 65.4966 7.84206C65.1475 7.53357 64.7599 7.3022 64.3337 7.14795C63.9076 6.9937 63.4632 6.91658 63.0008 6.91658C62.1575 6.91658 61.3936 7.17549 60.709 7.69332C60.0289 8.21115 59.4871 8.97412 59.0836 9.98223C58.6847 10.9903 58.4852 12.2271 58.4852 13.6924C58.4852 15.1578 58.6847 16.3945 59.0836 17.4026C59.4871 18.4107 60.0289 19.1737 60.709 19.6915C61.3936 20.2093 62.1575 20.4683 63.0008 20.4683C63.4632 20.4683 63.9076 20.3911 64.3337 20.2369C64.7599 20.0826 65.1475 19.854 65.4966 19.551C65.8503 19.2426 66.1495 18.8652 66.3943 18.419C66.6437 17.9673 66.8182 17.4494 66.918 16.8655H68.6045C68.4776 17.7304 68.2464 18.5044 67.9109 19.1875C67.5754 19.8706 67.1583 20.4517 66.6595 20.931C66.1608 21.4048 65.6009 21.7656 64.9798 22.0135C64.3632 22.2614 63.7035 22.3853 63.0008 22.3853C61.813 22.3853 60.7566 22.0328 59.8317 21.3276C58.9068 20.6225 58.1792 19.6199 57.6487 18.3198C57.1183 17.0197 56.853 15.4773 56.853 13.6924C56.853 11.9076 57.1183 10.3651 57.6487 9.06502C58.1792 7.76494 58.9068 6.76233 59.8317 6.0572C60.7566 5.35208 61.813 4.99951 63.0008 4.99951C63.7035 4.99951 64.3632 5.12346 64.9798 5.37136C65.6009 5.61925 66.1608 5.98284 66.6595 6.4621C67.1583 6.93586 67.5754 7.51429 67.9109 8.19738C68.2464 8.87496 68.4776 9.64895 68.6045 10.5193Z" fill="#67222B"/>
<path d="M71.1351 22.154H69.3669L74.481 5.23088H76.222L81.3361 22.154H79.5679L75.4059 7.90817H75.2971L71.1351 22.154ZM71.788 15.5434H78.915V17.3613H71.788V15.5434Z" fill="#67222B"/>
<path d="M82.7394 22.154V5.23088H84.426V20.3361H90.9002V22.154H82.7394Z" fill="#67222B"/>
<path d="M92.7456 22.154V5.23088H94.4322V20.3361H100.906V22.154H92.7456Z" fill="#67222B"/>
<path d="M116.512 5.23088H118.198V16.4358C118.198 17.5927 117.974 18.6256 117.525 19.5345C117.081 20.438 116.453 21.1514 115.641 21.6747C114.83 22.1925 113.878 22.4514 112.785 22.4514C111.693 22.4514 110.74 22.1925 109.929 21.6747C109.117 21.1514 108.487 20.438 108.038 19.5345C107.594 18.6256 107.372 17.5927 107.372 16.4358V5.23088H109.058V16.2705C109.058 17.0969 109.208 17.8323 109.507 18.4768C109.807 19.1158 110.233 19.6199 110.786 19.989C111.343 20.3526 112.01 20.5344 112.785 20.5344C113.56 20.5344 114.227 20.3526 114.785 19.989C115.342 19.6199 115.768 19.1158 116.063 18.4768C116.362 17.8323 116.512 17.0969 116.512 16.2705V5.23088Z" fill="#67222B"/>
<path d="M128.417 9.46165C128.336 8.62431 128.005 7.97427 127.424 7.51153C126.844 7.04879 126.132 6.81742 125.289 6.81742C124.672 6.81742 124.133 6.93861 123.67 7.181C123.212 7.42339 122.854 7.75667 122.596 8.18085C122.342 8.60503 122.215 9.08705 122.215 9.62692C122.215 10.0786 122.303 10.467 122.48 10.792C122.662 11.1115 122.893 11.3787 123.174 11.5936C123.455 11.8029 123.75 11.9764 124.058 12.1141C124.366 12.2464 124.65 12.3538 124.908 12.4364L126.323 12.8992C126.685 13.0148 127.089 13.1746 127.533 13.3784C127.982 13.5822 128.41 13.8604 128.818 14.213C129.231 14.5601 129.571 15.0063 129.839 15.5516C130.106 16.097 130.24 16.7663 130.24 17.5596C130.24 18.4741 130.043 19.3004 129.648 20.0386C129.258 20.7768 128.687 21.3634 127.934 21.7986C127.186 22.2338 126.277 22.4514 125.207 22.4514C124.21 22.4514 123.346 22.2559 122.616 21.8647C121.891 21.4736 121.32 20.9282 120.902 20.2286C120.49 19.529 120.256 18.7165 120.202 17.791H121.943C121.988 18.43 122.165 18.9588 122.473 19.3775C122.786 19.7907 123.181 20.0992 123.657 20.303C124.137 20.5013 124.654 20.6005 125.207 20.6005C125.851 20.6005 126.429 20.4738 126.941 20.2204C127.454 19.9615 127.86 19.6034 128.159 19.1461C128.458 18.6834 128.608 18.1435 128.608 17.5266C128.608 16.9647 128.478 16.5074 128.22 16.1549C127.962 15.8023 127.622 15.5158 127.2 15.2955C126.778 15.0751 126.323 14.8823 125.833 14.7171L124.119 14.1221C123.031 13.742 122.17 13.1994 121.535 12.4943C120.9 11.7891 120.583 10.8664 120.583 9.72607C120.583 8.77856 120.794 7.95224 121.215 7.24711C121.641 6.53647 122.213 5.98559 122.929 5.59446C123.65 5.19783 124.455 4.99951 125.343 4.99951C126.241 4.99951 127.039 5.19507 127.737 5.5862C128.435 5.97182 128.988 6.50066 129.396 7.17274C129.809 7.84481 130.027 8.60778 130.049 9.46165H128.417Z" fill="#67222B"/>
<path d="M137.438 22.154H135.67L140.784 5.23088H142.525L147.639 22.154H145.871L141.709 7.90817H141.6L137.438 22.154ZM138.091 15.5434H145.218V17.3613H138.091V15.5434Z" fill="#67222B"/>
<path d="M146.654 7.04879V5.23088H157.099V7.04879H152.72V22.154H151.033V7.04879H146.654Z" fill="#67222B"/>
<path d="M61.2389 32.1539L64.2027 39.0117L67.2401 32.1539H71.833L67.1561 41.9616L71.9592 51.7693H67.3873L64.2027 44.9882L61.0707 51.7693H56.4463L61.2389 41.9616L56.6145 32.1539H61.2389Z" fill="#67222B"/>
<path d="M78.2337 32.1539L81.1975 39.0117L84.2349 32.1539H88.8278L84.1508 41.9616L88.9539 51.7693H84.3821L81.1975 44.9882L78.0655 51.7693H73.4411L78.2337 41.9616L73.6092 32.1539H78.2337Z" fill="#67222B"/>
<path d="M95.2285 32.1539L98.1923 39.0117L101.23 32.1539H105.823L101.146 41.9616L105.949 51.7693H101.377L98.1923 44.9882L95.0603 51.7693H90.4359L95.2285 41.9616L90.604 32.1539H95.2285Z" fill="#67222B"/>
<path d="M117.875 38.8712V43.1876H108.059V38.8712H117.875Z" fill="#67222B"/>
<path d="M124.767 32.1539L127.731 39.0117L130.768 32.1539H135.361L130.684 41.9616L135.487 51.7693H130.915L127.731 44.9882L124.599 51.7693H119.974L124.767 41.9616L120.143 32.1539H124.767Z" fill="#67222B"/>
<path d="M141.762 32.1539L144.726 39.0117L147.763 32.1539H152.356L147.679 41.9616L152.482 51.7693H147.91L144.726 44.9882L141.594 51.7693H136.969L141.762 41.9616L137.137 32.1539H141.762Z" fill="#67222B"/>
<path d="M158.757 32.1539L161.72 39.0117L164.758 32.1539H169.351L164.674 41.9616L169.477 51.7693H164.905L161.72 44.9882L158.588 51.7693H153.964L158.757 41.9616L154.132 32.1539H158.757Z" fill="#67222B"/>
<path d="M181.403 38.8712V43.1876H171.587V38.8712H181.403Z" fill="#67222B"/>
<path d="M188.295 32.1539L191.259 39.0117L194.296 32.1539H198.889L194.212 41.9616L199.015 51.7693H194.444L191.259 44.9882L188.127 51.7693H183.503L188.295 41.9616L183.671 32.1539H188.295Z" fill="#67222B"/>
<path d="M205.29 32.1539L208.254 39.0117L211.291 32.1539H215.884L211.207 41.9616L216.01 51.7693H211.438L208.254 44.9882L205.122 51.7693H200.497L205.29 41.9616L200.665 32.1539H205.29Z" fill="#67222B"/>
<path d="M222.285 32.1539L225.249 39.0117L228.286 32.1539H232.879L228.202 41.9616L233.005 51.7693H228.433L225.249 44.9882L222.117 51.7693H217.492L222.285 41.9616L217.66 32.1539H222.285Z" fill="#67222B"/>
<path d="M239.279 32.1539L242.243 39.0117L245.281 32.1539H249.874L245.197 41.9616L250 51.7693H245.428L242.243 44.9882L239.111 51.7693H234.487L239.279 41.9616L234.655 32.1539H239.279Z" fill="#67222B"/>
<rect width="45.265" height="55" rx="3" fill="#67222B"/>
<path d="M36.752 34.0373L29.7037 30.1997L29.6843 30.1888C29.3184 29.9987 28.9192 29.9224 28.5229 29.9668C28.1266 30.0112 27.7457 30.175 27.4146 30.4433C27.3757 30.4746 27.3382 30.5086 27.3024 30.5451L23.6608 34.3173C21.3538 32.9557 18.9719 30.0834 17.8513 27.3165L20.9603 22.8245C20.9902 22.779 21.0186 22.7336 21.0456 22.6845C21.2617 22.2833 21.3928 21.8234 21.4272 21.3458C21.4617 20.8681 21.3984 20.3875 21.2431 19.9467V19.9249L18.0757 11.3462C17.8704 10.7704 17.5173 10.2908 17.0691 9.97885C16.621 9.66694 16.1018 9.5395 15.5891 9.61556C13.5618 9.93971 11.7009 11.1495 10.3541 13.0189C9.00716 14.8883 8.26637 17.2895 8.27003 19.774C8.27003 34.2082 17.9351 45.9519 29.8144 45.9519C31.8592 45.9564 33.8354 45.0563 35.374 43.4197C36.9125 41.7831 37.9081 39.522 38.1749 37.0587C38.2376 36.436 38.1329 35.8054 37.8765 35.2609C37.6201 34.7164 37.2256 34.2872 36.752 34.0373ZM29.8144 43.0433C24.7371 43.0365 19.8693 40.5828 16.2791 36.2204C12.6888 31.8581 10.6694 25.9434 10.6639 19.774C10.6582 17.9988 11.1846 16.2818 12.1446 14.9437C13.1047 13.6055 14.4328 12.7378 15.8809 12.5024C15.8803 12.5097 15.8803 12.517 15.8809 12.5242L19.0228 21.0684L15.9303 25.5659C15.8989 25.6098 15.8704 25.6566 15.845 25.7059C15.6198 26.1257 15.4878 26.609 15.4615 27.109C15.4353 27.6091 15.5159 28.1089 15.6954 28.56C17.0509 31.9286 19.8442 35.2972 22.6464 36.9424C23.0204 37.1584 23.4341 37.2529 23.8472 37.2166C24.2602 37.1803 24.6584 37.0144 25.0029 36.7351C25.0413 36.7037 25.0782 36.6697 25.1136 36.6333L28.7507 32.863L35.7825 36.6897H35.799C35.6077 38.4517 34.8945 40.0687 33.7931 41.2381C32.6916 42.4075 31.2772 43.0493 29.8144 43.0433Z" fill="white"/>
</svg>
