<svg width="89" height="91" viewBox="0 0 89 91" fill="none" xmlns="http://www.w3.org/2000/svg">
<path d="M83.4375 17.0625C83.4289 14.1128 82.2977 11.2824 80.2835 9.17063C78.2693 7.05888 75.5303 5.83166 72.6465 5.74886C69.7627 5.66607 66.9607 6.73419 64.8338 8.72704C62.7068 10.7199 61.4221 13.481 61.2515 16.4255L26.6611 23.4979C25.8524 21.7792 24.6329 20.2967 23.1155 19.1874C21.5981 18.0781 19.8317 17.3777 17.9796 17.1511C16.1274 16.9245 14.2493 17.179 12.5187 17.8909C10.7882 18.6029 9.26113 19.7494 8.07863 21.2245C6.89613 22.6996 6.09638 24.4557 5.75328 26.3304C5.41019 28.2051 5.53484 30.1381 6.11569 31.9505C6.69655 33.763 7.71488 35.3965 9.07655 36.7001C10.4382 38.0036 12.0993 38.9352 13.9063 39.4087V62.9663C12.0094 63.4642 10.2752 64.4663 8.87954 65.871C7.48389 67.2757 6.47655 69.0329 5.95975 70.9642C5.44294 72.8956 5.43509 74.9324 5.93697 76.8679C6.43885 78.8034 7.43261 80.5687 8.81737 81.9846C10.2021 83.4004 11.9286 84.4165 13.8216 84.9297C15.7145 85.4428 17.7065 85.4348 19.5955 84.9064C21.4844 84.378 23.203 83.348 24.5768 81.921C25.9506 80.494 26.9307 78.7207 27.4176 76.7813H50.4575C50.9198 78.6301 51.8306 80.3298 53.1057 81.7234C54.3807 83.1169 55.9788 84.1592 57.7522 84.7539C59.5256 85.3486 61.417 85.4765 63.2516 85.1258C65.0861 84.775 66.8046 83.957 68.248 82.7473C69.6914 81.5376 70.8132 79.9753 71.5097 78.2048C72.2061 76.4344 72.4547 74.513 72.2325 72.6183C72.0102 70.7236 71.3243 68.9168 70.2382 67.3649C69.1521 65.8131 67.7008 64.5663 66.0186 63.7398L72.9355 28.3721C75.7672 28.2139 78.4324 26.9543 80.385 24.8515C82.3376 22.7488 83.4297 19.9621 83.4375 17.0625ZM72.3125 11.375C73.4127 11.375 74.4882 11.7086 75.4029 12.3335C76.3176 12.9585 77.0306 13.8468 77.4516 14.886C77.8726 15.9253 77.9828 17.0688 77.7682 18.1721C77.5535 19.2754 77.0238 20.2888 76.2458 21.0842C75.4679 21.8796 74.4768 22.4213 73.3977 22.6407C72.3187 22.8602 71.2003 22.7476 70.1839 22.3171C69.1674 21.8866 68.2987 21.1576 67.6875 20.2223C67.0763 19.287 66.75 18.1874 66.75 17.0625C66.7515 15.5546 67.338 14.1088 68.3809 13.0425C69.4237 11.9762 70.8377 11.3765 72.3125 11.375ZM11.125 28.4375C11.125 27.3126 11.4513 26.213 12.0625 25.2777C12.6737 24.3424 13.5425 23.6134 14.5589 23.183C15.5753 22.7525 16.6937 22.6398 17.7727 22.8593C18.8518 23.0788 19.8429 23.6204 20.6208 24.4158C21.3988 25.2113 21.9285 26.2247 22.1432 27.3279C22.3578 28.4312 22.2476 29.5748 21.8266 30.614C21.4056 31.6533 20.6927 32.5416 19.7779 33.1665C18.8632 33.7915 17.7877 34.125 16.6875 34.125C15.2127 34.1235 13.7987 33.5238 12.7559 32.4575C11.713 31.3912 11.1265 29.9455 11.125 28.4375ZM16.6875 79.625C15.5874 79.625 14.5119 79.2915 13.5972 78.6665C12.6824 78.0415 11.9695 77.1533 11.5485 76.114C11.1275 75.0748 11.0173 73.9312 11.2319 72.8279C11.4466 71.7247 11.9763 70.7113 12.7543 69.9158C13.5322 69.1204 14.5233 68.5788 15.6024 68.3593C16.6814 68.1399 17.7998 68.2525 18.8162 68.683C19.8326 69.1134 20.7014 69.8424 21.3126 70.7777C21.9238 71.713 22.25 72.8126 22.25 73.9375C22.2486 75.4455 21.6621 76.8912 20.6192 77.9575C19.5763 79.0238 18.1624 79.6235 16.6875 79.625ZM50.4575 71.0938H27.4176C26.9194 69.1386 25.9202 67.3547 24.5229 65.9261C23.1257 64.4974 21.381 63.4757 19.4688 62.9663V39.4087C21.7412 38.8043 23.7673 37.478 25.2553 35.6209C26.7433 33.7637 27.6163 31.4715 27.7486 29.0745L62.339 22.0021C63.429 24.2948 65.2398 26.1473 67.4815 27.2631L60.5645 62.6279C58.2202 62.7632 55.9784 63.6558 54.1621 65.1772C52.3457 66.6986 51.0486 68.7703 50.4575 71.0938ZM61.1875 79.625C60.0874 79.625 59.0119 79.2915 58.0972 78.6665C57.1824 78.0415 56.4695 77.1533 56.0485 76.114C55.6274 75.0748 55.5173 73.9312 55.7319 72.8279C55.9466 71.7247 56.4763 70.7113 57.2543 69.9158C58.0322 69.1204 59.0233 68.5788 60.1024 68.3593C61.1814 68.1399 62.2998 68.2525 63.3162 68.683C64.3326 69.1134 65.2014 69.8424 65.8126 70.7777C66.4238 71.713 66.75 72.8126 66.75 73.9375C66.7486 75.4455 66.1621 76.8912 65.1192 77.9575C64.0763 79.0238 62.6624 79.6235 61.1875 79.625Z" fill="#D1D1D1"/>
</svg>
