<svg width="24" height="24" viewBox="0 0 24 24" fill="none" xmlns="http://www.w3.org/2000/svg">
<g clip-path="url(#clip0_1_950)">
<path d="M9.101 23.6909V15.7109H6.627V12.0439H9.101V10.4639C9.101 6.37895 10.949 4.48595 14.959 4.48595C15.36 4.48595 15.914 4.52795 16.427 4.58895C16.8112 4.62848 17.1924 4.69363 17.568 4.78395V8.10895C17.3509 8.08869 17.133 8.07668 16.915 8.07295C16.6707 8.0666 16.4264 8.0636 16.182 8.06395C15.475 8.06395 14.923 8.15995 14.507 8.37295C14.2273 8.51326 13.9922 8.72862 13.828 8.99495C13.57 9.41495 13.454 9.98995 13.454 10.7469V12.0439H17.373L16.987 14.1469L16.7 15.7109H13.454V23.9559C19.396 23.2379 24 18.1789 24 12.0439C24 5.41695 18.627 0.0439453 12 0.0439453C5.373 0.0439453 0 5.41695 0 12.0439C0 17.6719 3.874 22.3939 9.101 23.6909Z" fill="white"/>
</g>
<defs>
<clipPath id="clip0_1_950">
<rect width="24" height="24" fill="white"/>
</clipPath>
</defs>
</svg>
