<svg width="33" height="33" viewBox="0 0 33 33" fill="none" xmlns="http://www.w3.org/2000/svg">
<g clip-path="url(#clip0_1_1063)">
<path d="M12.8095 31.7635V21.0643H9.49251V16.1479H12.8095V14.0295C12.8095 8.55255 15.2872 6.01453 20.6636 6.01453C21.2012 6.01453 21.944 6.07084 22.6318 6.15263C23.1469 6.20564 23.658 6.29298 24.1616 6.41407V10.872C23.8704 10.8449 23.5784 10.8288 23.2861 10.8238C22.9585 10.8153 22.6309 10.8112 22.3033 10.8117C21.3554 10.8117 20.6153 10.9404 20.0575 11.226C19.6826 11.4141 19.3674 11.7029 19.1472 12.0599C18.8013 12.623 18.6457 13.394 18.6457 14.4089V16.1479H23.9001L23.3826 18.9674L22.9978 21.0643H18.6457V32.1188C26.6124 31.1561 32.7852 24.3733 32.7852 16.1479C32.7852 7.26276 25.5814 0.05896 16.6963 0.05896C7.81122 0.05896 0.607422 7.26276 0.607422 16.1479C0.607422 23.6935 5.80145 30.0245 12.8095 31.7635Z" fill="#67222B"/>
</g>
<defs>
<clipPath id="clip0_1_1063">
<rect width="32.1778" height="32.1778" fill="white" transform="translate(0.607422)"/>
</clipPath>
</defs>
</svg>
