<svg width="24" height="24" viewBox="0 0 24 24" fill="none" xmlns="http://www.w3.org/2000/svg">
<g clip-path="url(#clip0_1_946)">
<path d="M12.0168 0C5.39581 0 0.0288086 5.367 0.0288086 11.987C0.0288086 17.066 3.18681 21.404 7.64681 23.149C7.54181 22.2 7.44781 20.746 7.68781 19.71C7.90681 18.773 9.09381 13.753 9.09381 13.753C9.09381 13.753 8.73481 13.033 8.73481 11.972C8.73481 10.309 9.70181 9.061 10.9028 9.061C11.9268 9.061 12.4208 9.83 12.4208 10.749C12.4208 11.778 11.7678 13.316 11.4288 14.741C11.1438 15.934 12.0288 16.906 13.2038 16.906C15.3318 16.906 16.9718 14.661 16.9718 11.419C16.9718 8.558 14.9088 6.55 11.9638 6.55C8.55381 6.55 6.55481 9.112 6.55481 11.749C6.55481 12.782 6.94881 13.892 7.44381 14.49C7.54281 14.61 7.55581 14.715 7.52881 14.835C7.43881 15.21 7.23581 16.034 7.19481 16.198C7.14181 16.423 7.02281 16.469 6.79381 16.363C5.29881 15.673 4.36081 13.485 4.36081 11.717C4.36081 7.941 7.10881 4.465 12.2808 4.465C16.4388 4.465 19.6728 7.432 19.6728 11.388C19.6728 15.523 17.0658 18.85 13.4398 18.85C12.2258 18.85 11.0858 18.221 10.6818 17.471L9.93281 20.319C9.66381 21.364 8.92881 22.671 8.43481 23.465C9.55781 23.81 10.7408 24 11.9848 24C18.5918 24 23.9698 18.635 23.9698 12.013C23.9698 5.39 18.5918 0.026 11.9848 0.026L12.0168 0Z" fill="white"/>
</g>
<defs>
<clipPath id="clip0_1_946">
<rect width="24" height="24" fill="white"/>
</clipPath>
</defs>
</svg>
