<svg width="33" height="33" viewBox="0 0 33 33" fill="none" xmlns="http://www.w3.org/2000/svg">
<g clip-path="url(#clip0_1_1065)">
<path d="M16.0889 0C11.7181 0 11.1724 0.0201111 9.45624 0.0965333C7.74278 0.176978 6.57633 0.446467 5.55067 0.844667C4.49282 1.25493 3.59453 1.80598 2.70025 2.70025C1.80598 3.59453 1.25359 4.49148 0.844667 5.55067C0.446467 6.57633 0.175637 7.74278 0.0965333 9.45624C0.0160889 11.1724 0 11.7181 0 16.0889C0 20.4597 0.0201111 21.0054 0.0965333 22.7215C0.176978 24.4337 0.446467 25.6014 0.844667 26.6271C1.24862 27.7008 1.88186 28.6736 2.70025 29.4775C3.50373 30.2965 4.4766 30.9298 5.55067 31.3331C6.57767 31.73 7.74412 32.0021 9.45624 32.0812C11.1724 32.1617 11.7181 32.1778 16.0889 32.1778C20.4597 32.1778 21.0054 32.1577 22.7215 32.0812C24.4337 32.0008 25.6014 31.73 26.6271 31.3331C27.7006 30.9287 28.6732 30.2955 29.4775 29.4775C30.2968 28.6743 30.9301 27.7013 31.3331 26.6271C31.73 25.6014 32.0021 24.4337 32.0812 22.7215C32.1617 21.0054 32.1778 20.4597 32.1778 16.0889C32.1778 11.7181 32.1577 11.1724 32.0812 9.45624C32.0008 7.74412 31.73 6.57499 31.3331 5.55067C30.929 4.47703 30.2957 3.50433 29.4775 2.70025C28.6746 1.88058 27.7016 1.24714 26.6271 0.844667C25.6014 0.446467 24.4337 0.175637 22.7215 0.0965333C21.0054 0.0160889 20.4597 0 16.0889 0ZM16.0889 2.896C20.3833 2.896 20.8954 2.91745 22.5915 2.99119C24.1601 3.06493 25.0115 3.32504 25.5773 3.5476C26.3308 3.83854 26.8644 4.18713 27.4302 4.7489C27.992 5.31201 28.3406 5.84697 28.6315 6.60047C28.8514 7.16626 29.1142 8.01763 29.1852 9.5863C29.2617 11.2837 29.2791 11.7932 29.2791 16.0889C29.2791 20.3846 29.259 20.8954 29.1799 22.5915C29.0981 24.1601 28.8367 25.0115 28.6154 25.5773C28.3537 26.2755 27.9423 26.908 27.4101 27.4302C26.8901 27.9629 26.2581 28.3732 25.5599 28.6315C24.9968 28.8514 24.132 29.1142 22.5633 29.1852C20.8552 29.2617 20.3524 29.2791 16.0487 29.2791C11.7435 29.2791 11.2408 29.259 9.53401 29.1799C7.964 29.0981 7.09922 28.8367 6.53611 28.6154C5.83746 28.3569 5.20566 27.945 4.68723 27.4101C4.14903 26.8936 3.73626 26.2607 3.48056 25.5599C3.25934 24.9968 2.99924 24.132 2.91745 22.5633C2.85712 20.874 2.83567 20.3524 2.83567 16.0688C2.83567 11.7838 2.85712 11.2609 2.91745 9.55144C2.99924 7.98277 3.25934 7.11933 3.48056 6.55622C3.76212 5.792 4.12278 5.26911 4.68723 4.70466C5.249 4.14289 5.77323 3.78089 6.53611 3.50067C7.09922 3.27811 7.94523 3.01667 9.5139 2.93622C11.2233 2.87589 11.7261 2.85578 16.0286 2.85578L16.0889 2.896ZM16.0889 7.82724C15.004 7.82724 13.9296 8.04094 12.9273 8.45612C11.9249 8.87131 11.0142 9.47986 10.247 10.247C9.47986 11.0142 8.87131 11.9249 8.45612 12.9273C8.04094 13.9296 7.82724 15.004 7.82724 16.0889C7.82724 17.1738 8.04094 18.2481 8.45612 19.2505C8.87131 20.2528 9.47986 21.1636 10.247 21.9308C11.0142 22.6979 11.9249 23.3065 12.9273 23.7217C13.9296 24.1368 15.004 24.3505 16.0889 24.3505C18.28 24.3505 20.3814 23.4801 21.9308 21.9308C23.4801 20.3814 24.3505 18.28 24.3505 16.0889C24.3505 13.8978 23.4801 11.7964 21.9308 10.247C20.3814 8.69767 18.28 7.82724 16.0889 7.82724ZM16.0889 21.4519C13.1259 21.4519 10.7259 19.0519 10.7259 16.0889C10.7259 13.1259 13.1259 10.7259 16.0889 10.7259C19.0519 10.7259 21.4519 13.1259 21.4519 16.0889C21.4519 19.0519 19.0519 21.4519 16.0889 21.4519ZM26.6083 7.50144C26.5897 8.00104 26.3782 8.47396 26.0181 8.82083C25.6581 9.16769 25.1776 9.36149 24.6777 9.36149C24.1777 9.36149 23.6973 9.16769 23.3372 8.82083C22.9772 8.47396 22.7656 8.00104 22.747 7.50144C22.747 6.9894 22.9504 6.49833 23.3125 6.13626C23.6746 5.77419 24.1656 5.57078 24.6777 5.57078C25.1897 5.57078 25.6808 5.77419 26.0429 6.13626C26.4049 6.49833 26.6083 6.9894 26.6083 7.50144Z" fill="#67222B"/>
</g>
<defs>
<clipPath id="clip0_1_1065">
<rect width="32.1778" height="32.1778" fill="white"/>
</clipPath>
</defs>
</svg>
