<svg width="97" height="97" viewBox="0 0 97 97" fill="none" xmlns="http://www.w3.org/2000/svg">
<path d="M90.6344 36.8638C90.2673 35.7323 89.5754 34.7338 88.6449 33.9927C87.7145 33.2516 86.5866 32.8006 85.4017 32.6958L62.8984 30.7558L54.0775 9.77955C53.6182 8.67889 52.8436 7.73871 51.8511 7.07741C50.8586 6.4161 49.6926 6.06323 48.5 6.06323C47.3074 6.06323 46.1414 6.4161 45.1489 7.07741C44.1564 7.73871 43.3817 8.67889 42.9225 9.77955L34.1281 30.7558L11.5983 32.7072C10.4087 32.8071 9.27504 33.2561 8.33955 33.9978C7.40407 34.7395 6.70839 35.7408 6.33974 36.8763C5.97109 38.0118 5.9459 39.2308 6.26731 40.3806C6.58872 41.5303 7.24243 42.5596 8.14647 43.3393L25.2389 58.2758L20.1161 80.4569C19.8452 81.6177 19.9225 82.8325 20.3383 83.9496C20.7541 85.0667 21.49 86.0364 22.454 86.7375C23.4179 87.4386 24.5671 87.84 25.7579 87.8915C26.9488 87.9431 28.1284 87.6424 29.1492 87.0272L48.4735 75.2811L67.8394 87.0272C68.8602 87.6424 70.0398 87.9431 71.2307 87.8915C72.4215 87.84 73.5707 87.4386 74.5347 86.7375C75.4986 86.0364 76.2345 85.0667 76.6503 83.9496C77.0661 82.8325 77.1434 81.6177 76.8725 80.4569L71.7535 58.253L88.8421 43.3393C89.7461 42.5569 90.3985 41.5247 90.7174 40.3725C91.0363 39.2203 91.0074 37.9996 90.6344 36.8638ZM84.8674 38.7583L67.7787 53.672C66.947 54.3955 66.3283 55.332 65.9892 56.3809C65.65 57.4297 65.6032 58.5512 65.8539 59.6247L70.9881 81.8437L51.6373 70.0976C50.6932 69.5227 49.6092 69.2186 48.5038 69.2186C47.3984 69.2186 46.3143 69.5227 45.3702 70.0976L26.046 81.8437L31.1461 59.6398C31.3967 58.5664 31.35 57.4449 31.0108 56.396C30.6716 55.3472 30.0529 54.4107 29.2212 53.6872L12.125 38.781C12.1236 38.7697 12.1236 38.7583 12.125 38.7469L34.6472 36.7994C35.7468 36.7024 36.799 36.3071 37.6905 35.6561C38.5819 35.005 39.2786 34.123 39.7056 33.105L48.5 12.1553L57.2906 33.105C57.7175 34.123 58.4143 35.005 59.3057 35.6561C60.1972 36.3071 61.2494 36.7024 62.349 36.7994L84.875 38.7469V38.7735L84.8674 38.7583Z" fill="#D1D1D1"/>
</svg>
