<svg width="33" height="33" viewBox="0 0 33 33" fill="none" xmlns="http://www.w3.org/2000/svg">
<g clip-path="url(#clip0_1_1059)">
<path d="M16.9341 0C8.05708 0 0.861328 7.19576 0.861328 16.0715C0.861328 22.8811 5.09539 28.6972 11.0751 31.0368C10.9343 29.7644 10.8083 27.815 11.1301 26.426C11.4237 25.1697 13.0151 18.4392 13.0151 18.4392C13.0151 18.4392 12.5338 17.4739 12.5338 16.0513C12.5338 13.8217 13.8303 12.1485 15.4405 12.1485C16.8135 12.1485 17.4758 13.1795 17.4758 14.4116C17.4758 15.7912 16.6003 17.8533 16.1458 19.7639C15.7637 21.3634 16.9502 22.6666 18.5256 22.6666C21.3787 22.6666 23.5775 19.6566 23.5775 15.3099C23.5775 11.4741 20.8115 8.78185 16.8631 8.78185C12.2911 8.78185 9.611 12.2168 9.611 15.7524C9.611 17.1373 10.1393 18.6256 10.8029 19.4273C10.9357 19.5882 10.9531 19.729 10.9169 19.8899C10.7962 20.3927 10.524 21.4974 10.4691 21.7173C10.398 22.019 10.2385 22.0807 9.93144 21.9385C7.92703 21.0134 6.66942 18.0799 6.66942 15.7095C6.66942 10.6468 10.3538 5.98641 17.2881 5.98641C22.8629 5.98641 27.1988 9.96438 27.1988 15.2684C27.1988 20.8123 23.7035 25.273 18.842 25.273C17.2143 25.273 15.6859 24.4296 15.1442 23.4241L14.14 27.2425C13.7794 28.6436 12.7939 30.3959 12.1316 31.4605C13.6372 31.923 15.2233 32.1778 16.8912 32.1778C25.7495 32.1778 32.96 24.9847 32.96 16.1063C32.96 7.22659 25.7495 0.0348593 16.8912 0.0348593L16.9341 0Z" fill="#67222B"/>
</g>
<defs>
<clipPath id="clip0_1_1059">
<rect width="32.1778" height="32.1778" fill="white" transform="translate(0.822266)"/>
</clipPath>
</defs>
</svg>
