<svg width="33" height="33" viewBox="0 0 33 33" fill="none" xmlns="http://www.w3.org/2000/svg">
<g clip-path="url(#clip0_1_1061)">
<path d="M31.7196 8.29383C31.5378 7.60908 31.1793 6.9841 30.68 6.4815C30.1807 5.97889 29.5581 5.61629 28.8745 5.43C26.366 4.75293 16.3037 4.75293 16.3037 4.75293C16.3037 4.75293 6.24147 4.75293 3.73161 5.43C3.04838 5.61662 2.42612 5.97935 1.92707 6.48192C1.42803 6.9845 1.06969 7.6093 0.887896 8.29383C0.214844 10.8198 0.214844 16.0889 0.214844 16.0889C0.214844 16.0889 0.214844 21.358 0.887896 23.884C1.06968 24.5687 1.42818 25.1937 1.92749 25.6963C2.42681 26.1989 3.04941 26.5615 3.73295 26.7478C6.24147 27.4249 16.3037 27.4249 16.3037 27.4249C16.3037 27.4249 26.366 27.4249 28.8759 26.7478C29.5595 26.5616 30.1821 26.1991 30.6815 25.6964C31.1808 25.1938 31.5392 24.5688 31.7209 23.884C32.3926 21.358 32.3926 16.0889 32.3926 16.0889C32.3926 16.0889 32.3926 10.8198 31.7196 8.29383ZM13.0122 20.8727V11.3051L21.4227 16.0889L13.0122 20.8727Z" fill="#67222B"/>
</g>
<defs>
<clipPath id="clip0_1_1061">
<rect width="32.1778" height="32.1778" fill="white" transform="translate(0.214844)"/>
</clipPath>
</defs>
</svg>
